<svg xmlns="http://www.w3.org/2000/svg" version="1.1" xmlns:xlink="http://www.w3.org/1999/xlink" width="512" height="512" x="0" y="0" viewBox="0 0 512 512" style="enable-background:new 0 0 512 512" xml:space="preserve"><g><path d="M212.09 21a31.249 31.249 0 0 1 22.247 9.216l202.7 202.517 1.016 1.016a31.881 31.881 0 0 1 6.186 8.687c.041.093.082.186.125.278a33.538 33.538 0 0 1 1.524 3.929q.045.168.093.336a33.237 33.237 0 0 1 .984 4.469 31.7 31.7 0 0 1 0 9.083 33.288 33.288 0 0 1-.937 4.321q-.084.278-.158.556a33.516 33.516 0 0 1-1.37 3.576q-.168.344-.319.7a31.9 31.9 0 0 1-6.13 8.574l-1.015 1.015L234.333 481.8a31.49 31.49 0 0 1-44.511-44.556l170.768-170.63a15 15 0 0 0 0-21.222L189.821 74.766A31.5 31.5 0 0 1 212.09 21M96.2 128.717a31.319 31.319 0 0 1 22.278 9.223l95.775 95.774a31.164 31.164 0 0 1 8.629 16.253l.015.073a30.842 30.842 0 0 1 0 11.919c0 .027-.01.054-.016.081a31.161 31.161 0 0 1-8.629 16.252l-95.765 95.765a31.49 31.49 0 1 1-44.551-44.516l62.915-62.932a15 15 0 0 0 0-21.211l-62.919-62.934A31.485 31.485 0 0 1 96.2 128.717M212.09 6a46.5 46.5 0 0 0-32.87 79.378L349.988 256 179.22 426.629a46.489 46.489 0 0 0 65.719 65.771l202.7-202.52 1.018-1.019a46.833 46.833 0 0 0 9.327-13.276c-.018-.018 0-.018 0-.018a48.243 48.243 0 0 0 2.4-6.307.025.025 0 0 1 0-.036 48.375 48.375 0 0 0 1.429-6.522 46.79 46.79 0 0 0 0-13.4 48.375 48.375 0 0 0-1.429-6.522c.017-.018 0-.018 0-.036a48.189 48.189 0 0 0-2.4-6.307c.018-.018.018-.018 0-.018a46.851 46.851 0 0 0-9.327-13.277l-1.018-1.018L244.939 19.6A46.312 46.312 0 0 0 212.09 6ZM96.2 113.717a46.485 46.485 0 0 0-32.871 79.354L126.24 256l-62.915 62.936a46.49 46.49 0 0 0 65.756 65.738l95.774-95.774a46.57 46.57 0 0 0 0-65.791l-95.774-95.775A46.387 46.387 0 0 0 96.2 113.717Zm351.439 108.408 1.018 1.018a46.851 46.851 0 0 1 9.327 13.277 46.089 46.089 0 0 0-9.291-13.295 31.06 31.06 0 0 0-1.054-1Zm10.345 14.313a48.189 48.189 0 0 1 2.4 6.307 43.552 43.552 0 0 0-2.4-6.307Zm2.4 6.343a48.375 48.375 0 0 1 1.429 6.522 43.424 43.424 0 0 0-1.429-6.522Zm1.429 19.923a48.375 48.375 0 0 1-1.429 6.522 43.424 43.424 0 0 0 1.429-6.522Zm-1.429 6.558Zm0 0Zm0 0a48.243 48.243 0 0 1-2.4 6.307 43.6 43.6 0 0 0 2.4-6.307Zm-2.4 6.325Zm0 0Zm0 0a46.833 46.833 0 0 1-9.327 13.276l-1.018 1.019c.357-.322.715-.661 1.054-1a46.085 46.085 0 0 0 9.291-13.294Z" fill="#ffffff" opacity="1" data-original="#000000"></path></g></svg>